<?xml version="1.0" encoding="UTF-8"?>
<svg width="64px" height="64px" viewBox="0 0 64 64" version="1.1" xmlns="http://www.w3.org/2000/svg" xmlns:xlink="http://www.w3.org/1999/xlink">
    <title>B729DE19-FAA7-4913-82FA-90E81925B267</title>
    <defs>
        <path d="M21.6,0 C33.5293506,0 43.2,9.6706494 43.2,21.6 C43.2,26.6997974 41.4326284,31.386803 38.476968,35.081934 L47.2970563,43.9029437 C48.2343146,44.840202 48.2343146,46.359798 47.2970563,47.2970563 C46.4318948,48.1622178 45.0705402,48.2287687 44.1290413,47.4967089 L43.9029437,47.2970563 L35.081934,38.476968 C31.386803,41.4326284 26.6997974,43.2 21.6,43.2 C9.6706494,43.2 0,33.5293506 0,21.6 C0,9.6706494 9.6706494,0 21.6,0 Z M21.6,4.8 C12.3216162,4.8 4.8,12.3216162 4.8,21.6 C4.8,30.8783838 12.3216162,38.4 21.6,38.4 C26.129819,38.4 30.2409107,36.607215 33.2624434,33.6924766 C33.3228937,33.6121759 33.390087,33.5358004 33.4629437,33.4629437 C33.5355555,33.390332 33.6116625,33.3233456 33.690723,33.2619847 C36.6068233,30.241809 38.4,26.1303139 38.4,21.6 C38.4,12.3216162 30.8783838,4.8 21.6,4.8 Z" id="path-1"></path>
    </defs>
    <g id="___Symbols" stroke="none" stroke-width="1" fill="none" fill-rule="evenodd">
        <g id="ZZ_Color-Override/Black" transform="translate(8.000000, 8.000000)">
            <mask id="mask-2" fill="white">
                <use xlink:href="#path-1"></use>
            </mask>
            <g id="Mask" fill-rule="nonzero"></g>
            <g id="ZZ_Color-Override/05_Interface/Neutrals/1-LabelPrimary" mask="url(#mask-2)" fill="#000000" fill-opacity="0.9">
                <g transform="translate(-8.000000, -8.000000)" id="Rectangle">
                    <rect x="0" y="0" width="64" height="64"></rect>
                </g>
            </g>
        </g>
    </g>
</svg>