<?xml version="1.0" encoding="utf-8"?>
<svg viewBox="0 0 18 18" xmlns="http://www.w3.org/2000/svg">
  <g id="🇧🇷-Desktop" stroke="none" stroke-width="1" fill="none" fill-rule="evenodd" transform="matrix(-1, 0, 0, 1, 18, 0)">
    <g id="Home-/-No-overdue-client" transform="translate(-282.000000, -1194.000000)">
      <g id="Inputs/Search/Simple/Large/Default-Copy" transform="translate(267.000000, 1179.000000)">
        <g id="ZZ_Color-Override/Black" transform="translate(15.000000, 15.000000)">
          <mask id="mask-2" fill="white">
            <path d="M9.70710678,0.292893219 C10.0675907,0.65337718 10.0953203,1.22060824 9.79029539,1.61289944 L9.70710678,1.70710678 L3.415,8 L17,8 C17.5522847,8 18,8.44771525 18,9 C18,9.51283584 17.6139598,9.93550716 17.1166211,9.99327227 L17,10 L3.415,10 L9.70710678,16.2928932 C10.0675907,16.6533772 10.0953203,17.2206082 9.79029539,17.6128994 L9.70710678,17.7071068 C9.34662282,18.0675907 8.77939176,18.0953203 8.38710056,17.7902954 L8.29289322,17.7071068 L0.292893219,9.70710678 L0.219688767,9.62544899 C0.217372104,9.62256244 0.215071126,9.61966276 0.212785965,9.61675008 L0.292893219,9.70710678 C0.257499166,9.67171273 0.225312953,9.63432558 0.196334578,9.59530661 C0.178490093,9.57113069 0.1617187,9.54627495 0.146067433,9.52066019 C0.138606922,9.50861311 0.131498828,9.49639444 0.124671174,9.4840621 C0.11379392,9.46429395 0.103376643,9.4438914 0.0936537803,9.42309915 C0.0856790475,9.4060985 0.0781964242,9.38879565 0.0712254916,9.37133602 C0.0633157362,9.3515792 0.0561224864,9.33179768 0.0495466818,9.31173641 C0.0447287157,9.29685134 0.0400977346,9.28146328 0.0358451423,9.26599297 C0.0298336259,9.24443648 0.0246397952,9.22274608 0.0201651536,9.2007941 C0.0167021706,9.18337526 0.0136280806,9.16594901 0.0110178009,9.14846687 C0.00810097727,9.12942044 0.0057479633,9.10969493 0.00397747606,9.08980185 C0.00189498016,9.06599489 0.000634893312,9.04268105 0.000186147798,9.0193545 C6.12825798e-05,9.01290861 0,9.00646146 0,9 L0.000167545257,8.98163795 C0.000599315847,8.95798023 0.00186560354,8.93433491 0.00396640833,8.91074993 L0,9 C0,8.94937972 0.00376118706,8.89963791 0.0110193427,8.85103878 C0.0136280806,8.83405099 0.0167021706,8.81662474 0.020240071,8.79927424 C0.0246397952,8.77725392 0.0298336259,8.75556352 0.0357209664,8.73416039 C0.0400977346,8.71853672 0.0447287157,8.70314866 0.0497380859,8.68785748 C0.0561224864,8.66820232 0.0633157362,8.6484208 0.0711039637,8.62894148 C0.0781964242,8.61120435 0.0856790475,8.5939015 0.0936733617,8.57677845 C0.103376643,8.5561086 0.11379392,8.53570605 0.12487577,8.51572305 C0.131498828,8.50360556 0.138606922,8.49138689 0.145995454,8.47929125 C0.1617187,8.45372505 0.178490093,8.42886931 0.196313506,8.4048407 C0.200717862,8.39879136 0.20517454,8.39292666 0.209704612,8.38710056 C0.237668838,8.35153408 0.264426908,8.32135953 0.292893219,8.29289322 L8.29289322,0.292893219 C8.68341751,-0.0976310729 9.31658249,-0.0976310729 9.70710678,0.292893219 Z" transform="matrix(1, 0, 0, 1, 0, 0)"/>
          </mask>
          <g id="Mask" fill-rule="nonzero" transform="translate(9.000000, 9.000000) scale(-1, 1) translate(-9.000000, -9.000000) "/>
          <g id="ZZ_Color-Override/05_Interface/Neutrals/1-LabelPrimary" mask="url(#mask-2)" fill="#FFFF00">
            <g transform="translate(-3.000000, -3.000000)" id="Rectangle-Copy">
              <rect x="0" y="0" width="24" height="24"/>
            </g>
          </g>
        </g>
      </g>
    </g>
  </g>
</svg>