<svg width="765" height="107" viewBox="0 0 765 107" fill="none" xmlns="http://www.w3.org/2000/svg">
<path fill-rule="evenodd" clip-rule="evenodd" d="M607.175 32.9733V77.7907C607.175 86.916 623.737 88.8947 625.264 78.1187C626.321 70.6347 624.108 52.8534 626.035 46.76C629.243 36.6294 640.185 38.5666 642.28 41.8426C645.8 47.364 643.013 70.0466 643.999 78.5986C644.947 86.8906 660.3 88.8334 661.983 78.0574C663.857 66.0414 656.841 39.3173 671.441 39.3173C673.999 39.3173 677.243 39.004 678.993 41.9107C680.04 43.6453 680.347 45.416 680.327 48.1813C680.289 53.8173 680.004 74.2707 680.665 78.2907C682.185 87.552 693.999 86.692 697.253 82.0467C699.852 78.3373 698.92 61.6453 698.92 55.8066C698.92 47.724 698.524 39.76 695.961 34.2387C691.108 23.7907 675.805 22.536 666.701 28.2333C665.123 29.224 663.889 30.036 662.655 31.38L660.133 34.776C659.633 35.4946 660.081 34.9626 659.603 35.5093C658.931 32.64 656.305 29.6706 653.999 28.0093C648.035 23.7133 637.993 24.0987 631.409 27.6134C628.592 29.1187 626.863 31.1813 624.936 33.3947C624.936 29.9107 623.076 26.88 620.248 25.8227C613.42 23.28 607.175 27.2706 607.175 32.9733Z" fill="black"/>
<path fill-rule="evenodd" clip-rule="evenodd" d="M577.16 49.8853H554.753C554.753 34.26 577.16 32.4787 577.16 49.8853ZM536.998 55.38C536.998 95.8907 589.056 87.8173 591.967 75.6506C592.691 72.6133 591.723 67.2187 586.461 67.2187C581.223 67.2187 579.117 71.8693 567.013 71.8693C559.389 71.8693 554.898 65.828 554.753 59.1866H586.04C592.889 59.1866 592.378 55.5773 592.378 51.156C592.378 43.7493 588.795 36.2027 584.947 32.38L583.836 31.3693C581.66 29.3946 580.696 28.796 578.013 27.4733C570.66 23.8426 560.19 24.1147 552.914 27.7547C542.321 33.0573 536.998 43.364 536.998 55.38Z" fill="black"/>
<path fill-rule="evenodd" clip-rule="evenodd" d="M355.623 32.1293C355.623 37.3427 359.836 43.932 362.951 50.1666C365.66 55.5826 368.004 60.692 370.707 66.0933L376.379 77.7907C377.633 80.228 376.701 80.2439 374.223 85.8173C371.691 91.5093 368.732 94.4786 368.732 100.197C368.732 103.104 372.717 106.536 375.499 106.536C384.237 106.536 383.931 102.708 387.613 95.4L399.311 71.588C402.545 65.124 405.393 59 408.613 52.5613C410.227 49.3373 411.565 46.228 413.123 43.1187C414.217 40.9373 417.352 35.6666 417.352 32.9733C417.352 26.2026 405.108 20.2959 400.499 31.7653C399.727 33.6813 399.045 34.8013 398.269 36.7187C396.836 40.2333 387.503 59.6667 387.332 61.724C386.051 60.7853 383.472 54.1346 382.545 52.1399L373.321 32.1866C371.133 26.7493 369.117 25.364 363.66 25.364C359.993 25.364 355.623 28.5987 355.623 32.1293Z" fill="black"/>
<path fill-rule="evenodd" clip-rule="evenodd" d="M717.827 53.8066C727.508 63.7653 747.54 60.348 747.54 67.2187C747.54 74.3693 733.571 72.2653 728.243 70.448C725.081 69.3746 712.925 62.1667 712.712 73.6187C712.644 77.4427 714.185 79.3226 716.909 80.9373C724.633 85.5146 737.404 86.7653 746.243 84.9467C755.451 83.052 764.024 78.1507 764.024 66.796C764.024 49.0987 740.909 50.52 733.389 46.8587C729.113 44.7813 730.603 39.7387 735.389 38.5773C744.847 36.296 751.597 43.5467 755.993 43.5467C759.592 43.5467 761.915 40.296 761.915 36.7813C761.915 31.328 758.056 29.5933 754.3 27.9053C740.644 21.7813 719.347 24.8694 715.019 38.9267C713.499 43.864 714.081 49.952 717.827 53.8066Z" fill="black"/>
<path fill-rule="evenodd" clip-rule="evenodd" d="M494.717 16.4893V64.6813C494.717 72.2853 497.805 77.5253 502.259 80.8173C509.081 85.8533 529.389 88.5253 529.389 79.4786C529.389 74.072 527.841 72.2133 520.92 71.88C516.899 71.6867 512.899 70.8947 512.899 65.5307V40.1613H512.983V26.2133H512.899C512.899 17.828 514.456 9.40535 504.341 8.55201C499.961 8.18135 494.717 11.004 494.717 16.4893Z" fill="black"/>
<path fill-rule="evenodd" clip-rule="evenodd" d="M430.223 53.8066C439.899 63.7653 459.931 60.348 459.931 67.2187C459.931 74.3693 445.961 72.2653 440.633 70.448C437.472 69.3746 425.316 62.1667 425.103 73.6187C425.035 77.4427 426.576 79.3226 429.3 80.9373C437.024 85.5146 449.8 86.7653 458.633 84.9467C467.841 83.052 476.42 78.1507 476.42 66.796C476.42 49.0987 453.305 50.52 445.78 46.8587C441.503 44.7813 442.993 39.7387 447.78 38.5773C457.237 36.296 463.988 43.5467 468.384 43.5467C471.983 43.5467 474.305 40.296 474.305 36.7813C474.305 31.328 470.451 29.5933 466.691 27.9053C453.035 21.7813 431.743 24.8694 427.409 38.9267C425.889 43.864 426.472 49.952 430.223 53.8066Z" fill="black"/>
<path fill-rule="evenodd" clip-rule="evenodd" d="M302.389 53.8066C312.071 63.7653 332.097 60.348 332.097 67.2187C332.097 74.3693 318.133 72.2653 312.805 70.448C309.639 69.3746 297.488 62.1667 297.275 73.6187C297.201 77.4427 298.748 79.3226 301.472 80.9373C309.196 85.5146 321.967 86.7653 330.8 84.9467C340.013 83.052 348.587 78.1507 348.587 66.796C348.587 49.0987 325.472 50.52 317.947 46.8587C313.675 44.7813 315.16 39.7387 319.951 38.5773C329.409 36.296 336.16 43.5467 340.556 43.5467C344.155 43.5467 346.472 40.296 346.472 36.7813C346.472 31.328 342.617 29.5933 338.857 27.9053C325.207 21.7813 303.909 24.8694 299.581 38.9267C298.06 43.864 298.644 49.952 302.389 53.8066Z" fill="black"/>
<path fill-rule="evenodd" clip-rule="evenodd" d="M49.5345 60.4573V62.1453C49.5345 73.6706 26.7265 72.072 17.8319 68.0613C15.8839 67.1813 14.0652 66.1507 12.3159 65.124C8.35719 62.812 5.12786 61.6453 1.86786 65.6346C-1.4868 69.7386 -0.194804 74.7707 4.7172 78.2133C22.5025 90.676 68.1385 90.0933 68.1385 59.6093C68.1385 50.8693 63.0559 45.1867 55.8839 41.4213C41.5185 33.8853 20.3679 35.64 20.3679 24.52C20.3679 20.796 22.7799 18.2186 25.2945 16.7653C31.7372 13.0306 41.6279 14.228 48.5185 17.0827C53.6905 19.224 60.6172 26.244 65.2012 19.8907C73.8212 7.95202 49.6332 -4.03851e-06 38.1225 -4.03851e-06C26.5812 -4.03851e-06 19.6385 1.06665 10.6385 8.02532C9.70653 8.74399 9.05587 9.31734 8.20654 10.244C0.935868 18.124 -0.924128 32.3907 7.65987 41.0307C8.87321 42.2493 11.2479 43.916 12.7692 44.796C25.1745 52 49.5345 51.6347 49.5345 60.4573Z" fill="black"/>
<path fill-rule="evenodd" clip-rule="evenodd" d="M106.613 73.14C102.16 73.14 99.0039 70.0573 99.0039 65.104C99.0039 58.3227 111.685 58.7653 118.024 58.7653C118.024 63.0466 117.477 66.552 114.972 69.2387C112.847 71.5254 110.056 73.14 106.613 73.14ZM83.3573 36.7813C83.3573 39.2853 84.8679 41.8907 86.6546 42.7907C89.2839 44.1147 91.3626 43.1293 93.8053 42.156C102.447 38.6973 118.024 33.692 118.024 48.1973V49.8854C108.399 49.8854 99.1226 49.6973 90.5973 52.9C76.4826 58.2027 78.9466 78.7707 93.8626 84.192C99.6133 86.2853 106.415 86.4374 111.827 83.4267C113.269 82.624 114.076 81.9787 115.185 80.8694C116.972 79.0774 116.712 78.88 118.024 77.364C118.264 87.9787 135.363 88.3013 135.363 77.364V50.3067C135.363 34.536 127.909 24.9427 111.685 24.9427C104.248 24.9427 83.3573 26.4213 83.3573 36.7813Z" fill="black"/>
<path fill-rule="evenodd" clip-rule="evenodd" d="M152.696 8.03061V77.7906C152.696 87.3373 170.873 89.0719 170.873 76.5199V8.45196C170.873 -2.34404 152.696 -2.16273 152.696 8.03061Z" fill="black"/>
<path fill-rule="evenodd" clip-rule="evenodd" d="M191.587 69.3333C191.587 96.3533 248.004 100.421 255.915 73.624C256.847 70.468 256.748 66.0613 254.165 64.2333C251.341 62.2386 246.737 66.5879 241.223 68.6559C228.983 73.2493 211.535 72.208 200.707 65.7133C199.759 65.1453 197.732 64.02 196.723 63.7386C194.035 62.9946 191.587 65.968 191.587 69.3333Z" fill="black"/>
<path fill-rule="evenodd" clip-rule="evenodd" d="M219.707 21.1346H206.379V7.81196C206.379 4.20796 203.431 1.26001 199.827 1.26001C196.223 1.26001 193.275 4.20796 193.275 7.81196V21.1346H179.947C176.341 21.1346 173.393 24.088 173.393 27.692C173.393 31.296 176.341 34.244 179.947 34.244H193.275V47.5666C193.275 51.1706 196.223 54.1187 199.827 54.1187C203.431 54.1187 206.379 51.1706 206.379 47.5666V34.244H219.707C223.311 34.244 226.259 31.296 226.259 27.692C226.259 24.088 223.311 21.1346 219.707 21.1346Z" fill="black"/>
<path fill-rule="evenodd" clip-rule="evenodd" d="M522.269 26.2133H489.008C485.175 26.2133 482.035 29.348 482.035 33.1813C482.035 37.02 485.175 40.156 489.008 40.156H522.269C526.108 40.156 529.243 37.02 529.243 33.1813C529.243 29.348 526.108 26.2133 522.269 26.2133Z" fill="black"/>
</svg>
