<?xml version="1.0" encoding="UTF-8"?>
<svg width="45px" height="42px" viewBox="0 0 45 42" version="1.1" xmlns="http://www.w3.org/2000/svg" xmlns:xlink="http://www.w3.org/1999/xlink">
    <title>3BE45DE8-DB3C-4348-8AAA-0E20AAC81A91</title>
    <g id="✍️-UX-Writing" stroke="none" stroke-width="1" fill="none" fill-rule="evenodd">
        <g id="Eng-/-Loader" transform="translate(-666.000000, -333.000000)" fill-rule="nonzero">
            <g id="UserFeedback/LoadingSpinner/Buzz-Message" transform="translate(568.000000, 333.000000)">
                <g id="UserFeedback/Loading-Spinner/Buzz/Large" transform="translate(98.000000, 0.000000)">
                    <g id="ABI-Bees_Assets_Mascot-3_sRGB" transform="translate(0.009656, 0.000000)">
                        <path d="M21.6166034,8.90302142 C29.8746893,1.09316391 30.1469335,0 33.301588,0 C35.7690784,0 39.3753493,1.86819945 39.3753493,6.28250747 C39.3753493,7.64670558 39.0279248,9.15614622 38.1441799,10.0070689 L21.6166034,8.90302142 Z" id="Path" fill="#E1DCF1"></path>
                        <path d="M21.1520319,8.32897496 C32.1365584,5.20870071 34.8949249,4.22231197 36.7707243,4.22231197 C40.6040108,4.22231197 44.7674963,7.5221317 44.7674963,12.4079435 C44.7674963,15.6452464 42.4642623,19.317621 40.0087696,20.0390901 L21.1520319,8.32897496 Z" id="Path" fill="#F0ECFC"></path>
                        <path d="M30.9113115,26.1530805 C30.2238169,34.3373324 24.9697705,40.4885383 23.1442326,41.2258644 C21.3186947,41.9631905 13.2908101,41.1764539 7.16016991,35.7457292 C14.2691977,38.1196929 27.3849659,32.8650988 30.9113115,26.1530805 Z M0.126381812,22.4397859 C0.126381812,22.4397859 5.09749976,24.3262098 14.8280815,20.4254667 C24.1338483,16.6387847 26.6248781,12.0550409 26.816308,11.6796363 L26.8289206,11.6557312 C27.7773903,12.9660052 28.6683033,14.5913759 29.4704368,16.5976813 C29.8687789,17.5940096 30.1795972,18.5811842 30.4135845,19.5543035 L30.5242251,20.0396692 L30.523,20.0421761 C30.4192857,20.2780556 27.9641803,25.6459361 18.4631265,29.5168308 C9.0889444,33.2700315 3.64424189,31.2289982 3.25375896,31.0727067 L3.23221528,31.0639042 C3.49336173,31.4908843 3.76589499,31.9016735 4.04849391,32.2968163 C3.765568,31.9015357 3.49303324,31.4907435 3.23188483,31.0637594 C2.62882312,30.0783926 2.08666493,29.007856 1.62194096,27.8454731 C0.819807456,25.8391591 0.34400935,24.0461315 0.126703784,22.4405608 Z M22.5822436,8.07503072 C19.8792054,12.6254175 5.38311084,18.4506224 0.529134679,16.8419068 L0.521551395,16.8229243 C-1.52556244,11.6638471 2.73756487,6.50576621 8.35568521,4.23664461 C13.9738055,1.96752302 20.6025954,2.72644604 22.6764414,7.87473335 L22.6840247,7.89369877 Z" id="Combined-Shape" fill="#000000"></path>
                        <path d="M4.44835371,11.3926596 C4.59864677,12.3662826 4.22046544,13.0234124 3.64272936,13.1135045 C3.06499328,13.2035966 2.50649077,12.6925269 2.35619771,11.7189038 C2.20590465,10.7452808 2.52075074,9.67780147 3.09847835,9.58770938 C3.67621443,9.49762581 4.29806065,10.419045 4.44835371,11.3926596 Z" id="Path" fill="#FFFFFF"></path>
                    </g>
                </g>
            </g>
        </g>
    </g>
</svg>