<?xml version="1.0" encoding="UTF-8"?>
<svg width="64px" height="64px" viewBox="0 0 64 64" version="1.1" xmlns="http://www.w3.org/2000/svg" xmlns:xlink="http://www.w3.org/1999/xlink">
    <title>F31F3694-433F-44F4-A432-B9A58FEC3791</title>
    <defs>
        <path d="M33.0699451,6.24407024 L29.7579506,2.92807582 C27.8862248,1.04682525 25.3397152,-0.00749882347 22.6859624,4.01542413e-05 L9.99998341,4.01542413e-05 C4.47988626,0.00669296204 0.0066122217,4.4799669 0,10.0000639 L0,38.0000168 C0.0066122217,43.5201138 4.47988626,47.9933878 9.99998341,48 L25.9999569,48 C31.520054,47.9933878 35.993328,43.5201138 35.9999703,38.0000168 L35.9999703,13.3140583 C36.0064562,10.6607094 34.9514359,8.11497799 33.0699451,6.24407024 Z M30.2419498,9.07206548 C30.5256401,9.35470469 30.779632,9.66566044 30.9999569,10.0000723 L25.9999569,10.0000723 L25.9999569,5.00007233 C26.333821,5.22271154 26.6452815,5.47723837 26.9299553,5.76007105 L30.2419498,9.07206548 Z M31.9999469,38.0000168 C31.9999469,41.3137197 29.3136599,44.0000067 25.9999569,44.0000067 L9.99999336,44.0000067 C6.68628041,44.0000067 3.99999336,41.3137197 3.99999336,38.0000168 L3.99999336,10.0000639 C3.99999336,6.68636099 6.68628041,4.00007401 9.99999336,4.00007401 L21.9999635,4.00007401 L21.9999635,10.0000639 C21.9999635,12.2091992 23.7908215,14.0000572 25.9999569,14.0000572 L31.9999469,14.0000572 L31.9999469,38.0000168 Z M25.9999569,18.0000505 C27.1045245,18.0000505 27.9999535,18.8954795 27.9999535,20.0000505 C27.9999535,21.1046147 27.1045245,22.0000505 25.9999569,22.0000505 L9.99998673,22.0000505 C8.89541574,22.0000505 7.99998673,21.1046147 7.99998673,20.0000505 C7.99998673,18.8954795 8.89541574,18.0000505 9.99998673,18.0000505 L25.9999569,18.0000505 Z M27.9999535,28.000037 C27.9999535,29.1046013 27.1045245,30.000037 25.9999569,30.000037 L9.99998673,30.000037 C8.89541574,30.000037 7.99998673,29.1046013 7.99998673,28.000037 C7.99998673,26.895466 8.89541574,26.000037 9.99998673,26.000037 L25.9999569,26.000037 C27.1045245,26.000037 27.9999535,26.895466 27.9999535,28.000037 Z M27.6159542,34.8260222 C28.2631906,35.7164301 28.0692214,36.9624812 27.1819549,37.6140175 C25.1555779,39.0579382 22.7555661,39.8864144 20.2699664,40.0000135 C18.8177274,39.9930082 17.4096108,39.5001674 16.269973,38.6000158 C15.6139741,38.1500166 15.3639745,38.0000235 14.8699753,38.0000235 C13.5328301,38.2069261 12.2712135,38.7537184 11.2059814,39.5880141 C10.327722,40.2140951 9.1112137,40.0309959 8.45615539,39.1741322 C7.80109708,38.3172684 7.94347297,37.0953246 8.77798544,36.4120195 C10.5403414,35.0438922 12.656539,34.2071269 14.8779753,34.0000235 C16.2102393,34.0213014 17.4982157,34.4817951 18.5419692,35.3100213 C19.0177403,35.7379473 19.6302998,35.9825457 20.2699664,36.0000235 C21.9053138,35.877508 23.4779056,35.3187786 24.8239588,34.3820229 C25.7176861,33.7341937 26.9672762,33.9329107 27.6159542,34.8260222 Z" id="path-1"></path>
    </defs>
    <g id="___Symbols" stroke="none" stroke-width="1" fill="none" fill-rule="evenodd">
        <g id="ZZ_Color-Override/01_Primary/BEESBlack" transform="translate(14.000000, 8.000000)">
            <mask id="mask-2" fill="white">
                <use xlink:href="#path-1"></use>
            </mask>
            <g id="Mask" fill-rule="nonzero"></g>
            <g id="ZZ_Color-Override/05_Interface/Neutrals/1-LabelPrimary" mask="url(#mask-2)" fill="#000000" fill-opacity="0.9">
                <g transform="translate(-14.000000, -8.000000)" id="Rectangle">
                    <rect x="0" y="0" width="64" height="64"></rect>
                </g>
            </g>
        </g>
    </g>
</svg>