<?xml version="1.0" encoding="UTF-8"?>
<svg width="106px" height="32px" viewBox="0 0 106 32" version="1.1" xmlns="http://www.w3.org/2000/svg" xmlns:xlink="http://www.w3.org/1999/xlink">
    <title>DD12DB2F-8831-4952-8FFA-B75CAB0268BD</title>
    <g id="✍️-UX-Writing" stroke="none" stroke-width="1" fill="none" fill-rule="evenodd">
        <g id="Eng-/-Home-/-Overdue-client" transform="translate(-96.000000, -1233.000000)" fill="#FFFF00" fill-rule="nonzero">
            <g id="Navigation-/-Desktop-/-Footer" transform="translate(0.000000, 1185.000000)">
                <g id="Bees_Logo_LargeScale_Yellow_RGB" transform="translate(96.000000, 48.000000)">
                    <path d="M49.7246726,0.1208199 C50.5412299,0.1208199 51.2032796,0.782901493 51.2032796,1.59944279 L51.2032796,6.60226866 C51.2032796,7.41898507 50.5412299,8.08087562 49.7246726,8.08087562 L28.6449035,8.08087562 L28.6449035,1.59942687 C28.6449035,0.782869652 29.3069532,0.1208199 30.1235104,0.1208199 L49.7246726,0.1208199 M49.7246726,24.001401 L28.6449035,24.001401 L28.6449035,30.483009 C28.6449035,31.2995662 29.3069532,31.9616159 30.1235104,31.9616159 L49.7246726,31.9616159 C50.5412299,31.9616159 51.2032796,31.2995662 51.2032796,30.483009 L51.2032796,25.480008 C51.2032796,24.6634667 50.5412139,24.001401 49.7246726,24.001401 M47.2255045,18.5427104 L47.2255045,13.5397095 C47.2255045,12.722993 46.5634388,12.0611025 45.7468975,12.0611025 L28.6472438,12.0611025 L28.6472438,20.0213333 L45.7468975,20.0213333 C46.5634388,20.0213333 47.2255045,19.3592677 47.2255045,18.5427104 M76.2631801,0.120835821 L56.6620338,0.120835821 C55.8454766,0.120835821 55.1834269,0.782901493 55.1834269,1.59944279 L55.1834269,8.08089154 L76.263196,8.08089154 C77.0797532,8.08089154 77.741803,7.419001 77.741803,6.60228458 L77.741803,1.59945871 C77.741803,0.782885572 77.0797373,0.120835821 76.2631801,0.120835821 M76.2631801,24.001401 L55.1834109,24.001401 L55.1834109,30.483009 C55.1834109,31.2995662 55.8454607,31.9616159 56.6620179,31.9616159 L76.2631801,31.9616159 C77.0797373,31.9616159 77.7417871,31.2995662 77.7417871,30.483009 L77.7417871,25.480008 C77.7417871,24.6634667 77.0797373,24.001401 76.2631801,24.001401 M73.7614806,18.5427104 L73.7614806,13.5397095 C73.7614806,12.722993 73.0994149,12.0611025 72.2828736,12.0611025 L55.1832199,12.0611025 L55.1832199,20.0213333 L72.2828736,20.0213333 C73.0994308,20.0213333 73.7614806,19.3592677 73.7614806,18.5427104 M0.120772139,30.4828657 C0.120772139,31.299598 0.782821891,31.9614726 1.5993791,31.9614726 L14.9143244,31.9614726 C19.7280478,31.9614726 23.7429333,28.5430607 24.664804,24.0012577 L0.120772139,24.0012577 L0.120772139,30.4828657 Z M81.7218866,25.4799761 L81.7218866,30.4828179 C81.7218866,31.2995343 82.3839522,31.9615841 83.2004935,31.9615841 L95.1888557,31.9615841 C100.002579,31.9615841 104.017465,28.5430129 104.939176,24.0013692 L83.2004776,24.0013692 C82.3839363,24.0013692 81.7218866,24.6634189 81.7218866,25.4799761 M103.460617,0.120835821 L90.8087085,0.120835821 C85.995001,0.120835821 81.9800995,3.53942289 81.058404,8.08089154 L103.460617,8.08089154 C104.277174,8.08089154 104.939224,7.419001 104.939224,6.60244378 L104.939224,1.59944279 C104.939224,0.782885572 104.277174,0.120835821 103.460617,0.120835821 M14.9143881,12.0610706 L0.120835821,12.0610706 L0.120835821,20.0212856 L24.6647085,20.0212856 C23.742997,15.4796577 19.7281114,12.0610706 14.9143881,12.0610706 M95.1890468,12.062201 L81.0585313,12.0610547 C81.9807522,16.602205 85.9952876,20.0201075 90.8085333,20.0201075 L104.939192,20.0212697 C104.017146,15.4801194 100.002261,12.062201 95.1890468,12.062201 M12.8187383,0.122969154 L1.59958607,0.120819866 C0.782869652,0.120644776 0.12080398,0.782694527 0.12080398,1.59960199 L0.12080398,8.08038209 L20.6825871,8.08038209 C20.6825871,3.71658507 17.1702766,0.174646766 12.8187383,0.122969154" id="Bees_-_E_Alligned_-_Logo_2_"></path>
                </g>
            </g>
        </g>
    </g>
</svg>