<?xml version="1.0" standalone="no"?>
<!DOCTYPE svg PUBLIC "-//W3C//DTD SVG 20010904//EN"
 "http://www.w3.org/TR/2001/REC-SVG-20010904/DTD/svg10.dtd">
<svg version="1.0" xmlns="http://www.w3.org/2000/svg"
 width="66.000000pt" height="20.000000pt" viewBox="0 0 66.000000 20.000000"
 preserveAspectRatio="xMidYMid meet">

<g transform="translate(0.000000,20.000000) scale(0.100000,-0.100000)"
fill="#000000" stroke="none">
<path d="M0 175 c0 -24 2 -25 65 -25 36 0 65 4 65 8 0 22 -39 42 -83 42 -43 0
-47 -2 -47 -25z"/>
<path d="M180 175 c0 -24 2 -25 70 -25 68 0 70 1 70 25 0 24 -2 25 -70 25 -68
0 -70 -1 -70 -25z"/>
<path d="M347 193 c-4 -3 -7 -15 -7 -25 0 -16 9 -18 70 -18 68 0 70 1 70 25 0
24 -2 25 -63 25 -35 0 -67 -3 -70 -7z"/>
<path d="M527 182 c-10 -10 -17 -22 -17 -25 0 -4 32 -7 70 -7 68 0 70 1 70 25
0 24 -3 25 -53 25 -40 0 -58 -5 -70 -18z"/>
<path d="M2 98 c3 -21 9 -23 76 -26 59 -2 72 0 72 12 0 23 -33 36 -95 36 -53
0 -56 -1 -53 -22z"/>
<path d="M180 94 c0 -24 2 -25 53 -22 45 3 52 6 55 26 3 21 0 22 -52 22 -53 0
-56 -1 -56 -26z"/>
<path d="M342 98 c3 -21 9 -23 58 -23 49 0 55 2 58 23 3 21 0 22 -58 22 -58 0
-61 -1 -58 -22z"/>
<path d="M510 111 c0 -19 31 -33 84 -38 47 -5 56 -3 56 10 0 9 -9 21 -19 27
-24 12 -121 13 -121 1z"/>
<path d="M0 25 c0 -24 3 -25 58 -25 44 0 63 5 75 18 10 10 17 22 17 25 0 4
-34 7 -75 7 -73 0 -75 -1 -75 -25z"/>
<path d="M180 25 c0 -24 2 -25 70 -25 68 0 70 1 70 25 0 24 -2 25 -70 25 -68
0 -70 -1 -70 -25z"/>
<path d="M342 28 c3 -21 9 -23 71 -26 66 -3 67 -3 67 23 0 24 -2 25 -71 25
-67 0 -70 -1 -67 -22z"/>
<path d="M510 25 c0 -24 3 -25 53 -25 40 0 58 5 70 18 10 10 17 22 17 25 0 4
-31 7 -70 7 -68 0 -70 -1 -70 -25z"/>
</g>
</svg>
