<svg width="48" height="48" viewBox="0 0 48 48" fill="none" xmlns="http://www.w3.org/2000/svg">
<mask id="mask0_5_119" style="mask-type:luminance" maskUnits="userSpaceOnUse" x="0" y="0" width="48" height="48">
<path d="M21.6 0C33.5294 0 43.2 9.67065 43.2 21.6C43.2 26.6998 41.4326 31.3868 38.477 35.0819L47.2971 43.9029C48.2343 44.8402 48.2343 46.3598 47.2971 47.2971C46.4319 48.1622 45.0705 48.2288 44.129 47.4967L43.9029 47.2971L35.0819 38.477C31.3868 41.4326 26.6998 43.2 21.6 43.2C9.67065 43.2 0 33.5294 0 21.6C0 9.67065 9.67065 0 21.6 0ZM21.6 4.8C12.3216 4.8 4.8 12.3216 4.8 21.6C4.8 30.8784 12.3216 38.4 21.6 38.4C26.1298 38.4 30.2409 36.6072 33.2624 33.6925C33.3229 33.6122 33.3901 33.5358 33.4629 33.4629C33.5356 33.3903 33.6117 33.3233 33.6907 33.262C36.6068 30.2418 38.4 26.1303 38.4 21.6C38.4 12.3216 30.8784 4.8 21.6 4.8Z" fill="white" fill-opacity="0.9"/>
</mask>
<g mask="url(#mask0_5_119)">
<path d="M56 -8H-8V56H56V-8Z" fill="white" fill-opacity="0.9"/>
</g>
</svg>
